<mxfile host="app.diagrams.net" modified="2024-03-19T17:42:16.641Z" agent="Mozilla/5.0 (Macintosh; Intel Mac OS X 10_15_7) AppleWebKit/537.36 (KHTML, like Gecko) Chrome/122.0.0.0 Safari/537.36" etag="tNQUWqrPQB9tT_PKM9Vd" version="24.0.7" type="device">
  <diagram id="C5RBs43oDa-KdzZeNtuy" name="Page-1">
    <mxGraphModel dx="1459" dy="999" grid="1" gridSize="10" guides="1" tooltips="1" connect="1" arrows="1" fold="1" page="1" pageScale="1" pageWidth="827" pageHeight="1169" math="0" shadow="0">
      <root>
        <mxCell id="WIyWlLk6GJQsqaUBKTNV-0" />
        <mxCell id="WIyWlLk6GJQsqaUBKTNV-1" parent="WIyWlLk6GJQsqaUBKTNV-0" />
        <mxCell id="-_gF3k55TBkOPMaDyCZm-71" value="" style="rounded=0;whiteSpace=wrap;html=1;" vertex="1" parent="WIyWlLk6GJQsqaUBKTNV-1">
          <mxGeometry x="520" width="490" height="410" as="geometry" />
        </mxCell>
        <mxCell id="-_gF3k55TBkOPMaDyCZm-1" value="" style="rounded=0;whiteSpace=wrap;html=1;" vertex="1" parent="WIyWlLk6GJQsqaUBKTNV-1">
          <mxGeometry width="490" height="410" as="geometry" />
        </mxCell>
        <mxCell id="-_gF3k55TBkOPMaDyCZm-2" value="NavQ+" style="rounded=0;whiteSpace=wrap;html=1;" vertex="1" parent="WIyWlLk6GJQsqaUBKTNV-1">
          <mxGeometry width="90" height="30" as="geometry" />
        </mxCell>
        <mxCell id="-_gF3k55TBkOPMaDyCZm-3" value="Robot.launch.py" style="rhombus;whiteSpace=wrap;html=1;" vertex="1" parent="WIyWlLk6GJQsqaUBKTNV-1">
          <mxGeometry x="150" y="20" width="160" height="50" as="geometry" />
        </mxCell>
        <mxCell id="-_gF3k55TBkOPMaDyCZm-51" style="edgeStyle=orthogonalEdgeStyle;rounded=0;orthogonalLoop=1;jettySize=auto;html=1;entryX=0;entryY=0.5;entryDx=0;entryDy=0;" edge="1" parent="WIyWlLk6GJQsqaUBKTNV-1" source="-_gF3k55TBkOPMaDyCZm-4" target="-_gF3k55TBkOPMaDyCZm-8">
          <mxGeometry relative="1" as="geometry" />
        </mxCell>
        <mxCell id="-_gF3k55TBkOPMaDyCZm-52" value="nearest_distance" style="edgeLabel;html=1;align=center;verticalAlign=middle;resizable=0;points=[];" vertex="1" connectable="0" parent="-_gF3k55TBkOPMaDyCZm-51">
          <mxGeometry x="0.1051" y="2" relative="1" as="geometry">
            <mxPoint as="offset" />
          </mxGeometry>
        </mxCell>
        <mxCell id="-_gF3k55TBkOPMaDyCZm-4" value="LDlidar" style="rounded=0;whiteSpace=wrap;html=1;" vertex="1" parent="WIyWlLk6GJQsqaUBKTNV-1">
          <mxGeometry x="20" y="160" width="70" height="40" as="geometry" />
        </mxCell>
        <mxCell id="-_gF3k55TBkOPMaDyCZm-43" style="edgeStyle=orthogonalEdgeStyle;rounded=0;orthogonalLoop=1;jettySize=auto;html=1;" edge="1" parent="WIyWlLk6GJQsqaUBKTNV-1" source="-_gF3k55TBkOPMaDyCZm-6" target="-_gF3k55TBkOPMaDyCZm-7">
          <mxGeometry relative="1" as="geometry" />
        </mxCell>
        <mxCell id="-_gF3k55TBkOPMaDyCZm-44" value="image_raw" style="edgeLabel;html=1;align=center;verticalAlign=middle;resizable=0;points=[];" vertex="1" connectable="0" parent="-_gF3k55TBkOPMaDyCZm-43">
          <mxGeometry x="0.3988" y="-2" relative="1" as="geometry">
            <mxPoint as="offset" />
          </mxGeometry>
        </mxCell>
        <mxCell id="-_gF3k55TBkOPMaDyCZm-53" style="edgeStyle=orthogonalEdgeStyle;rounded=0;orthogonalLoop=1;jettySize=auto;html=1;" edge="1" parent="WIyWlLk6GJQsqaUBKTNV-1" source="-_gF3k55TBkOPMaDyCZm-6" target="-_gF3k55TBkOPMaDyCZm-40">
          <mxGeometry relative="1" as="geometry">
            <Array as="points">
              <mxPoint x="230" y="210" />
              <mxPoint x="435" y="210" />
            </Array>
          </mxGeometry>
        </mxCell>
        <mxCell id="-_gF3k55TBkOPMaDyCZm-6" value="Camera" style="rounded=0;whiteSpace=wrap;html=1;" vertex="1" parent="WIyWlLk6GJQsqaUBKTNV-1">
          <mxGeometry x="195" y="140" width="70" height="40" as="geometry" />
        </mxCell>
        <mxCell id="-_gF3k55TBkOPMaDyCZm-45" style="edgeStyle=orthogonalEdgeStyle;rounded=0;orthogonalLoop=1;jettySize=auto;html=1;" edge="1" parent="WIyWlLk6GJQsqaUBKTNV-1" source="-_gF3k55TBkOPMaDyCZm-7" target="-_gF3k55TBkOPMaDyCZm-8">
          <mxGeometry relative="1" as="geometry" />
        </mxCell>
        <mxCell id="-_gF3k55TBkOPMaDyCZm-46" value="vision/command" style="edgeLabel;html=1;align=center;verticalAlign=middle;resizable=0;points=[];" vertex="1" connectable="0" parent="-_gF3k55TBkOPMaDyCZm-45">
          <mxGeometry x="-0.3335" y="-3" relative="1" as="geometry">
            <mxPoint as="offset" />
          </mxGeometry>
        </mxCell>
        <mxCell id="-_gF3k55TBkOPMaDyCZm-7" value="NXP-CUP-VISION" style="rounded=0;whiteSpace=wrap;html=1;" vertex="1" parent="WIyWlLk6GJQsqaUBKTNV-1">
          <mxGeometry x="260" y="240" width="70" height="40" as="geometry" />
        </mxCell>
        <mxCell id="-_gF3k55TBkOPMaDyCZm-8" value="Synapse ROS" style="rounded=0;whiteSpace=wrap;html=1;" vertex="1" parent="WIyWlLk6GJQsqaUBKTNV-1">
          <mxGeometry x="195" y="340" width="70" height="40" as="geometry" />
        </mxCell>
        <mxCell id="-_gF3k55TBkOPMaDyCZm-10" value="" style="endArrow=none;html=1;rounded=0;exitX=1;exitY=0;exitDx=0;exitDy=0;entryX=1;entryY=0.25;entryDx=0;entryDy=0;" edge="1" parent="WIyWlLk6GJQsqaUBKTNV-1" source="-_gF3k55TBkOPMaDyCZm-12" target="-_gF3k55TBkOPMaDyCZm-1">
          <mxGeometry width="50" height="50" relative="1" as="geometry">
            <mxPoint x="250" y="130" as="sourcePoint" />
            <mxPoint x="300" y="80" as="targetPoint" />
          </mxGeometry>
        </mxCell>
        <mxCell id="-_gF3k55TBkOPMaDyCZm-11" value="C&#39;est le programme principal, qui va lancer les différents noeuds" style="text;html=1;align=center;verticalAlign=middle;whiteSpace=wrap;rounded=0;" vertex="1" parent="WIyWlLk6GJQsqaUBKTNV-1">
          <mxGeometry x="320" y="30" width="150" height="50" as="geometry" />
        </mxCell>
        <mxCell id="-_gF3k55TBkOPMaDyCZm-12" value="Nodes" style="rounded=0;whiteSpace=wrap;html=1;" vertex="1" parent="WIyWlLk6GJQsqaUBKTNV-1">
          <mxGeometry y="100" width="90" height="30" as="geometry" />
        </mxCell>
        <mxCell id="-_gF3k55TBkOPMaDyCZm-22" value="" style="rounded=0;whiteSpace=wrap;html=1;" vertex="1" parent="WIyWlLk6GJQsqaUBKTNV-1">
          <mxGeometry y="440" width="490" height="410" as="geometry" />
        </mxCell>
        <mxCell id="-_gF3k55TBkOPMaDyCZm-23" value="MrCANHUB" style="rounded=0;whiteSpace=wrap;html=1;" vertex="1" parent="WIyWlLk6GJQsqaUBKTNV-1">
          <mxGeometry y="820" width="90" height="30" as="geometry" />
        </mxCell>
        <mxCell id="-_gF3k55TBkOPMaDyCZm-24" value="main.c" style="rhombus;whiteSpace=wrap;html=1;" vertex="1" parent="WIyWlLk6GJQsqaUBKTNV-1">
          <mxGeometry x="150" y="780" width="160" height="50" as="geometry" />
        </mxCell>
        <mxCell id="-_gF3k55TBkOPMaDyCZm-59" style="edgeStyle=orthogonalEdgeStyle;rounded=0;orthogonalLoop=1;jettySize=auto;html=1;" edge="1" parent="WIyWlLk6GJQsqaUBKTNV-1" source="-_gF3k55TBkOPMaDyCZm-34" target="-_gF3k55TBkOPMaDyCZm-56">
          <mxGeometry relative="1" as="geometry" />
        </mxCell>
        <mxCell id="-_gF3k55TBkOPMaDyCZm-60" value="joy_status" style="edgeLabel;html=1;align=center;verticalAlign=middle;resizable=0;points=[];" vertex="1" connectable="0" parent="-_gF3k55TBkOPMaDyCZm-59">
          <mxGeometry x="0.3127" y="2" relative="1" as="geometry">
            <mxPoint as="offset" />
          </mxGeometry>
        </mxCell>
        <mxCell id="-_gF3k55TBkOPMaDyCZm-62" style="edgeStyle=orthogonalEdgeStyle;rounded=0;orthogonalLoop=1;jettySize=auto;html=1;entryX=0.5;entryY=0;entryDx=0;entryDy=0;" edge="1" parent="WIyWlLk6GJQsqaUBKTNV-1" source="-_gF3k55TBkOPMaDyCZm-34" target="-_gF3k55TBkOPMaDyCZm-61">
          <mxGeometry relative="1" as="geometry" />
        </mxCell>
        <mxCell id="-_gF3k55TBkOPMaDyCZm-63" value="joy" style="edgeLabel;html=1;align=center;verticalAlign=middle;resizable=0;points=[];" vertex="1" connectable="0" parent="-_gF3k55TBkOPMaDyCZm-62">
          <mxGeometry x="0.1017" y="-4" relative="1" as="geometry">
            <mxPoint as="offset" />
          </mxGeometry>
        </mxCell>
        <mxCell id="-_gF3k55TBkOPMaDyCZm-84" style="edgeStyle=orthogonalEdgeStyle;rounded=0;orthogonalLoop=1;jettySize=auto;html=1;" edge="1" parent="WIyWlLk6GJQsqaUBKTNV-1" source="-_gF3k55TBkOPMaDyCZm-34" target="-_gF3k55TBkOPMaDyCZm-83">
          <mxGeometry relative="1" as="geometry" />
        </mxCell>
        <mxCell id="-_gF3k55TBkOPMaDyCZm-85" value="vision/command" style="edgeLabel;html=1;align=center;verticalAlign=middle;resizable=0;points=[];" vertex="1" connectable="0" parent="-_gF3k55TBkOPMaDyCZm-84">
          <mxGeometry x="0.51" y="1" relative="1" as="geometry">
            <mxPoint as="offset" />
          </mxGeometry>
        </mxCell>
        <mxCell id="-_gF3k55TBkOPMaDyCZm-34" value="Synapse ZROS" style="rounded=0;whiteSpace=wrap;html=1;" vertex="1" parent="WIyWlLk6GJQsqaUBKTNV-1">
          <mxGeometry x="195" y="460" width="70" height="40" as="geometry" />
        </mxCell>
        <mxCell id="-_gF3k55TBkOPMaDyCZm-35" value="" style="endArrow=none;html=1;rounded=0;exitX=1;exitY=0;exitDx=0;exitDy=0;" edge="1" parent="WIyWlLk6GJQsqaUBKTNV-1" source="-_gF3k55TBkOPMaDyCZm-37">
          <mxGeometry width="50" height="50" relative="1" as="geometry">
            <mxPoint x="250" y="570" as="sourcePoint" />
            <mxPoint x="490" y="730" as="targetPoint" />
          </mxGeometry>
        </mxCell>
        <mxCell id="-_gF3k55TBkOPMaDyCZm-36" value="C&#39;est le programme principal, qui va lancer les différents noeuds" style="text;html=1;align=center;verticalAlign=middle;whiteSpace=wrap;rounded=0;" vertex="1" parent="WIyWlLk6GJQsqaUBKTNV-1">
          <mxGeometry x="330" y="780" width="150" height="50" as="geometry" />
        </mxCell>
        <mxCell id="-_gF3k55TBkOPMaDyCZm-37" value="Nodes" style="rounded=0;whiteSpace=wrap;html=1;" vertex="1" parent="WIyWlLk6GJQsqaUBKTNV-1">
          <mxGeometry y="730" width="90" height="30" as="geometry" />
        </mxCell>
        <mxCell id="-_gF3k55TBkOPMaDyCZm-39" value="" style="shape=flexArrow;endArrow=classic;startArrow=classic;html=1;rounded=0;exitX=0.5;exitY=1;exitDx=0;exitDy=0;entryX=0.5;entryY=0;entryDx=0;entryDy=0;strokeColor=default;fillColor=#FF3636;" edge="1" parent="WIyWlLk6GJQsqaUBKTNV-1" source="-_gF3k55TBkOPMaDyCZm-8" target="-_gF3k55TBkOPMaDyCZm-34">
          <mxGeometry width="100" height="100" relative="1" as="geometry">
            <mxPoint x="280" y="360" as="sourcePoint" />
            <mxPoint x="380" y="260" as="targetPoint" />
          </mxGeometry>
        </mxCell>
        <mxCell id="-_gF3k55TBkOPMaDyCZm-57" style="edgeStyle=orthogonalEdgeStyle;rounded=0;orthogonalLoop=1;jettySize=auto;html=1;entryX=1;entryY=0.5;entryDx=0;entryDy=0;" edge="1" parent="WIyWlLk6GJQsqaUBKTNV-1" source="-_gF3k55TBkOPMaDyCZm-40" target="-_gF3k55TBkOPMaDyCZm-8">
          <mxGeometry relative="1" as="geometry">
            <Array as="points">
              <mxPoint x="430" y="360" />
            </Array>
          </mxGeometry>
        </mxCell>
        <mxCell id="-_gF3k55TBkOPMaDyCZm-58" value="joy" style="edgeLabel;html=1;align=center;verticalAlign=middle;resizable=0;points=[];" vertex="1" connectable="0" parent="-_gF3k55TBkOPMaDyCZm-57">
          <mxGeometry x="-0.0154" y="-4" relative="1" as="geometry">
            <mxPoint as="offset" />
          </mxGeometry>
        </mxCell>
        <mxCell id="-_gF3k55TBkOPMaDyCZm-40" value="FoxGlove" style="rounded=0;whiteSpace=wrap;html=1;" vertex="1" parent="WIyWlLk6GJQsqaUBKTNV-1">
          <mxGeometry x="400" y="220" width="70" height="40" as="geometry" />
        </mxCell>
        <mxCell id="-_gF3k55TBkOPMaDyCZm-54" value="" style="shape=flexArrow;endArrow=classic;startArrow=classic;html=1;rounded=0;strokeColor=default;fillColor=#FF3636;entryX=1;entryY=0.5;entryDx=0;entryDy=0;" edge="1" parent="WIyWlLk6GJQsqaUBKTNV-1" target="-_gF3k55TBkOPMaDyCZm-40">
          <mxGeometry width="100" height="100" relative="1" as="geometry">
            <mxPoint x="550" y="240" as="sourcePoint" />
            <mxPoint x="600" y="300" as="targetPoint" />
          </mxGeometry>
        </mxCell>
        <mxCell id="-_gF3k55TBkOPMaDyCZm-67" style="edgeStyle=orthogonalEdgeStyle;rounded=0;orthogonalLoop=1;jettySize=auto;html=1;entryX=0.5;entryY=1;entryDx=0;entryDy=0;" edge="1" parent="WIyWlLk6GJQsqaUBKTNV-1" source="-_gF3k55TBkOPMaDyCZm-56" target="-_gF3k55TBkOPMaDyCZm-64">
          <mxGeometry relative="1" as="geometry">
            <Array as="points">
              <mxPoint x="90" y="720" />
              <mxPoint x="429" y="720" />
            </Array>
          </mxGeometry>
        </mxCell>
        <mxCell id="-_gF3k55TBkOPMaDyCZm-68" value="status" style="edgeLabel;html=1;align=center;verticalAlign=middle;resizable=0;points=[];" vertex="1" connectable="0" parent="-_gF3k55TBkOPMaDyCZm-67">
          <mxGeometry x="-0.7988" relative="1" as="geometry">
            <mxPoint as="offset" />
          </mxGeometry>
        </mxCell>
        <mxCell id="-_gF3k55TBkOPMaDyCZm-70" style="edgeStyle=orthogonalEdgeStyle;rounded=0;orthogonalLoop=1;jettySize=auto;html=1;entryX=0.5;entryY=1;entryDx=0;entryDy=0;" edge="1" parent="WIyWlLk6GJQsqaUBKTNV-1" source="-_gF3k55TBkOPMaDyCZm-56" target="-_gF3k55TBkOPMaDyCZm-69">
          <mxGeometry relative="1" as="geometry">
            <Array as="points">
              <mxPoint x="90" y="680" />
              <mxPoint x="205" y="680" />
            </Array>
          </mxGeometry>
        </mxCell>
        <mxCell id="-_gF3k55TBkOPMaDyCZm-56" value="final_state_machine.c" style="rounded=0;whiteSpace=wrap;html=1;" vertex="1" parent="WIyWlLk6GJQsqaUBKTNV-1">
          <mxGeometry x="20" y="565" width="120" height="45" as="geometry" />
        </mxCell>
        <mxCell id="-_gF3k55TBkOPMaDyCZm-65" style="edgeStyle=orthogonalEdgeStyle;rounded=0;orthogonalLoop=1;jettySize=auto;html=1;entryX=0;entryY=0.5;entryDx=0;entryDy=0;" edge="1" parent="WIyWlLk6GJQsqaUBKTNV-1" source="-_gF3k55TBkOPMaDyCZm-61" target="-_gF3k55TBkOPMaDyCZm-64">
          <mxGeometry relative="1" as="geometry">
            <Array as="points">
              <mxPoint x="290" y="680" />
            </Array>
          </mxGeometry>
        </mxCell>
        <mxCell id="-_gF3k55TBkOPMaDyCZm-66" value="manual/command" style="edgeLabel;html=1;align=center;verticalAlign=middle;resizable=0;points=[];" vertex="1" connectable="0" parent="-_gF3k55TBkOPMaDyCZm-65">
          <mxGeometry x="0.0467" y="-4" relative="1" as="geometry">
            <mxPoint as="offset" />
          </mxGeometry>
        </mxCell>
        <mxCell id="-_gF3k55TBkOPMaDyCZm-61" value="manual.c" style="rounded=0;whiteSpace=wrap;html=1;" vertex="1" parent="WIyWlLk6GJQsqaUBKTNV-1">
          <mxGeometry x="265" y="567.5" width="70" height="40" as="geometry" />
        </mxCell>
        <mxCell id="-_gF3k55TBkOPMaDyCZm-64" value="Actuators/motors" style="rounded=0;whiteSpace=wrap;html=1;" vertex="1" parent="WIyWlLk6GJQsqaUBKTNV-1">
          <mxGeometry x="378" y="660" width="102" height="40" as="geometry" />
        </mxCell>
        <mxCell id="-_gF3k55TBkOPMaDyCZm-69" value="lights.c" style="rounded=0;whiteSpace=wrap;html=1;" vertex="1" parent="WIyWlLk6GJQsqaUBKTNV-1">
          <mxGeometry x="170" y="567.5" width="70" height="40" as="geometry" />
        </mxCell>
        <mxCell id="-_gF3k55TBkOPMaDyCZm-72" value="Host" style="rounded=0;whiteSpace=wrap;html=1;" vertex="1" parent="WIyWlLk6GJQsqaUBKTNV-1">
          <mxGeometry x="520" width="90" height="30" as="geometry" />
        </mxCell>
        <mxCell id="-_gF3k55TBkOPMaDyCZm-73" value="Electrode.launch.py" style="rhombus;whiteSpace=wrap;html=1;" vertex="1" parent="WIyWlLk6GJQsqaUBKTNV-1">
          <mxGeometry x="640" y="20" width="190" height="50" as="geometry" />
        </mxCell>
        <mxCell id="-_gF3k55TBkOPMaDyCZm-74" value="" style="endArrow=none;html=1;rounded=0;exitX=1;exitY=0;exitDx=0;exitDy=0;entryX=1;entryY=0.25;entryDx=0;entryDy=0;" edge="1" parent="WIyWlLk6GJQsqaUBKTNV-1">
          <mxGeometry width="50" height="50" relative="1" as="geometry">
            <mxPoint x="610" y="100" as="sourcePoint" />
            <mxPoint x="1010" y="103" as="targetPoint" />
          </mxGeometry>
        </mxCell>
        <mxCell id="-_gF3k55TBkOPMaDyCZm-75" value="C&#39;est le programme principal, qui va lancer les différents noeuds" style="text;html=1;align=center;verticalAlign=middle;whiteSpace=wrap;rounded=0;" vertex="1" parent="WIyWlLk6GJQsqaUBKTNV-1">
          <mxGeometry x="840" y="30" width="150" height="50" as="geometry" />
        </mxCell>
        <mxCell id="-_gF3k55TBkOPMaDyCZm-76" value="Nodes" style="rounded=0;whiteSpace=wrap;html=1;" vertex="1" parent="WIyWlLk6GJQsqaUBKTNV-1">
          <mxGeometry x="520" y="100" width="90" height="30" as="geometry" />
        </mxCell>
        <mxCell id="-_gF3k55TBkOPMaDyCZm-81" style="edgeStyle=orthogonalEdgeStyle;rounded=0;orthogonalLoop=1;jettySize=auto;html=1;entryX=0;entryY=0.5;entryDx=0;entryDy=0;" edge="1" parent="WIyWlLk6GJQsqaUBKTNV-1" source="-_gF3k55TBkOPMaDyCZm-77" target="-_gF3k55TBkOPMaDyCZm-80">
          <mxGeometry relative="1" as="geometry">
            <Array as="points">
              <mxPoint x="580" y="150" />
            </Array>
          </mxGeometry>
        </mxCell>
        <mxCell id="-_gF3k55TBkOPMaDyCZm-82" value="image_raw" style="edgeLabel;html=1;align=center;verticalAlign=middle;resizable=0;points=[];" vertex="1" connectable="0" parent="-_gF3k55TBkOPMaDyCZm-81">
          <mxGeometry x="-0.4884" y="-3" relative="1" as="geometry">
            <mxPoint as="offset" />
          </mxGeometry>
        </mxCell>
        <mxCell id="-_gF3k55TBkOPMaDyCZm-77" value="FoxGlove" style="rounded=0;whiteSpace=wrap;html=1;" vertex="1" parent="WIyWlLk6GJQsqaUBKTNV-1">
          <mxGeometry x="550" y="220" width="70" height="40" as="geometry" />
        </mxCell>
        <mxCell id="-_gF3k55TBkOPMaDyCZm-79" style="edgeStyle=orthogonalEdgeStyle;rounded=0;orthogonalLoop=1;jettySize=auto;html=1;" edge="1" parent="WIyWlLk6GJQsqaUBKTNV-1" source="-_gF3k55TBkOPMaDyCZm-78" target="-_gF3k55TBkOPMaDyCZm-77">
          <mxGeometry relative="1" as="geometry" />
        </mxCell>
        <mxCell id="-_gF3k55TBkOPMaDyCZm-78" value="Joy" style="rounded=0;whiteSpace=wrap;html=1;" vertex="1" parent="WIyWlLk6GJQsqaUBKTNV-1">
          <mxGeometry x="710" y="220" width="70" height="40" as="geometry" />
        </mxCell>
        <mxCell id="-_gF3k55TBkOPMaDyCZm-80" value="Panel" style="rounded=0;whiteSpace=wrap;html=1;" vertex="1" parent="WIyWlLk6GJQsqaUBKTNV-1">
          <mxGeometry x="710" y="130" width="70" height="40" as="geometry" />
        </mxCell>
        <mxCell id="-_gF3k55TBkOPMaDyCZm-86" style="edgeStyle=orthogonalEdgeStyle;rounded=0;orthogonalLoop=1;jettySize=auto;html=1;" edge="1" parent="WIyWlLk6GJQsqaUBKTNV-1" source="-_gF3k55TBkOPMaDyCZm-83" target="-_gF3k55TBkOPMaDyCZm-64">
          <mxGeometry relative="1" as="geometry" />
        </mxCell>
        <mxCell id="-_gF3k55TBkOPMaDyCZm-87" value="auto/command" style="edgeLabel;html=1;align=center;verticalAlign=middle;resizable=0;points=[];" vertex="1" connectable="0" parent="-_gF3k55TBkOPMaDyCZm-86">
          <mxGeometry x="-0.4" y="1" relative="1" as="geometry">
            <mxPoint as="offset" />
          </mxGeometry>
        </mxCell>
        <mxCell id="-_gF3k55TBkOPMaDyCZm-83" value="auto.c" style="rounded=0;whiteSpace=wrap;html=1;" vertex="1" parent="WIyWlLk6GJQsqaUBKTNV-1">
          <mxGeometry x="379" y="565" width="70" height="40" as="geometry" />
        </mxCell>
      </root>
    </mxGraphModel>
  </diagram>
</mxfile>
